<svg id="Layer_1" data-name="Layer 1" xmlns="http://www.w3.org/2000/svg" viewBox="0 0 1024 1027"><defs><style>.cls-abp-1{fill:#df0000;}.cls-abp-2{fill:#fcfcfc;}</style></defs><title>abp</title><g id="layer101"><path class="cls-abp-1" d="M150.2,876.7,0,726.5v-427L149.8,149.7,299.5,0h426L874.8,149.3,1024,298.5v429L874.2,877.3,724.5,1027h-424Z"/></g><g id="layer102"><path class="cls-abp-2" d="M150.2,876.7,0,726.5v-427L149.8,149.7,299.5,0h426L874.8,149.3,1024,298.5v429L874.2,877.3,724.5,1027h-424Zm691.4-34.4L979,705.7V320.4L842.1,184.2,705.2,48H318.5L182.8,183.7,47,319.5v387L182.8,842.1C257.4,916.7,319.2,978,320,978.3s87.6.6,192.9.6l191.3.1Z"/><path class="cls-abp-2" d="M415,507V326.7l51.3.7c81.1,1.1,102.8,3.4,124.2,13.5,21.9,10.4,38.2,30.5,42.1,52.1,1.6,9.1,1.8,29,.3,39.7-3.3,24.2-18.9,47.4-37.9,56-10.7,4.9-10.5,4.8-10.8,7.6-.4,3,1.3,4.1,7.4,5,5.8.9,17.7,6,26,11.2,14.4,9,24.5,23.3,29.5,42.1,3.4,12.3,3.8,38.3.9,52.3-2.7,13.6-6.9,24.1-13.2,33.8-16.2,24.9-46.1,40.9-82.5,44.3-6.5.6-40,1.4-74.5,1.7l-62.8.6ZM545.5,625c11.1-2.3,25.3-10.9,30.7-18.8,8.5-12.4,10.2-38.7,3.3-52.8-5.2-10.7-18-19.2-33.2-22-4.9-.9-18-1.7-35.5-2.1l-27.8-.6v98.6l28.8-.7C527.6,626.3,542.7,625.5,545.5,625Zm-24-152c20.5-1.5,28.5-4.1,35.6-11.7,8.1-8.7,10.4-16,10.3-33.3,0-15.8-2-21.6-9.6-28.4-8.6-7.8-19.6-9.9-56.5-11L483,388v86.5l12.2-.3C502,474.1,513.8,473.5,521.5,473Z"/><path class="cls-abp-2" d="M89,684.8c0-.9,83.7-309,94.3-347.3l2.3-8,41.6-.3c39-.2,41.7-.1,42.2,1.5.3,1,17.9,65.5,39,143.3s42.8,157,48,176c6.8,24.9,9.1,34.7,8.3,35.2-1.6,1-69.4,1-70,.1-.3-.5-4.7-19.4-9.8-42L275.5,602H176.3l-2.2,9.8c-1.3,5.3-5.4,23.4-9.2,40.2s-7.2,31.3-7.5,32.3c-.5,1.6-3,1.7-34.5,1.7C97.5,686,89,685.7,89,684.8Zm172.5-146c-.8-2.3-11.2-48.7-20.4-90.8-13-59.8-12-56-14.1-56a4.1,4.1,0,0,0-2.8,1.3c-1.5,1.8-5.2,16.8-12.7,52.2-7.5,35.1-16.8,76.2-19.2,84.7-1.7,6.4-1.1,8.3,3,9.1,1.2.2,16.7.5,34.4.6C255.1,540,261.8,539.7,261.5,538.8Z"/><path class="cls-abp-2" d="M703.2,507.8l.3-178.3,38-.3c49-.4,103.5,1.2,113,3.3,19.5,4.2,34.7,11,47,20.9,14,11.3,23.6,25.6,29.8,44.4,4.9,14.8,6,25.7,5.4,51.9-.4,19.4-.7,22.9-3.1,31.8-8.3,31.7-31.9,59.7-60.3,71.5-20.3,8.5-31.2,10.1-70.5,10.7l-31.8.5V686H703ZM831,500.5c27-5.9,38-20.5,39.7-52.5,1.3-26.9-5.8-42.7-23.2-51-9.7-4.6-21.4-6-51.2-6H771V503.3l26.3-.6C816.2,502.3,825.6,501.7,831,500.5Z"/></g></svg>