<?xml version="1.0" encoding="utf-8"?>
<!-- Generator: Adobe Illustrator 21.0.0, SVG Export Plug-In . SVG Version: 6.00 Build 0)  -->
<svg version="1.1" id="Layer_1" xmlns="http://www.w3.org/2000/svg" xmlns:xlink="http://www.w3.org/1999/xlink" x="0px" y="0px"
	 viewBox="0 0 1200.5 1203.5" style="enable-background:new 0 0 1200.5 1203.5;" xml:space="preserve">
<title>abp</title>
<g id="layer101">
	<path style="fill:#DF0000;" d="M214.9,988L56.2,829.3V373.7l158.7-158.8L373.7,56.2h452.8l160.1,159.6l160.1,159.6v452.1
		L986.6,987.2l-160.2,159.6H373.7L214.9,988z M636,803.6c27.7-1.4,46.2-5.8,65.9-15.5c32-15.8,51.6-42.6,58.3-80.1
		c2.5-14,2.2-38.3-0.6-51.8c-6.8-32.3-21.8-50.7-52.1-63.7c-4.8-2-9.7-3.7-14.8-5c-7.8-1.6-8.5-2-8.5-4.9c0-3.1,2.4-5,9.2-7.6
		c17.1-6.3,35-25.7,42.8-46.2c4.8-12.3,6.5-23.9,6.4-44.6s-1.3-29-6.7-40.3c-4.7-9.8-10.9-18.7-18.6-26.4
		c-14.2-14.3-30.4-22.2-55.9-27.1c-23.2-4.4-37.4-5.2-108-5.7l-67-0.5V806l65.5-0.7C588,804.9,625.9,804.2,636,803.6z M191.3,772.1
		c4-17.7,9.1-39.9,11.4-49.4l4.1-17.4h116l0.7,3.3c0.8,3.5,18.7,82.2,20.7,90.8l1.3,5.4l40.8-0.4c22.5-0.1,41.2-0.6,41.6-1
		c0.6-0.7-20.4-78.6-101.3-375.5l-11.1-41.1l-49.2-0.3l-49.2-0.2l-25,92c-13.8,50.7-38.9,143.4-56,206s-31.3,115.1-31.6,116.6
		c-0.5,2.4-0.2,2.7,2.8,3.1c1.9,0.2,19.9,0.3,40,0.3l36.6-0.1L191.3,772.1z M903.8,732.8l0.2-71.4l37.4-0.5
		c32.2-0.4,38.9-0.8,48.8-2.6c37.5-6.9,66.3-25,85.4-53.5c14-21,20.1-38.5,22.2-64.7c2.1-27.2-0.3-55.9-6.1-73.5
		c-12.1-36.3-35.8-60-71.8-71.7c-22.9-7.5-37.1-8.5-129-8.5h-67v208.5c0,114.7,0.3,208.9,0.7,209.2s18.3,0.6,39.8,0.5l39.2-0.3
		L903.8,732.8z"/>
	<path style="fill:#DF0000;" d="M565.9,677.8v-57.7h18.4c24.3,0,50.2,1.6,59.1,3.6c16.5,3.6,30.2,13.4,35.9,25.7
		c3.7,8,5.4,19.5,4.6,31.9c-1.1,17.7-5.4,28.2-15.2,36.7c-5.8,5.1-20.8,12.8-28.1,14.5c-5,1.1-43.3,2.9-63.9,3h-10.8V677.8z"/>
	<path style="fill:#DF0000;" d="M565.9,505.9v-50.4h13.8c19.8,0,46.7,1.8,54.9,3.7c9.1,2,15.7,5.4,20.7,10.5
		c8.2,8.5,10.4,17.1,9.6,36.7c-0.6,14.9-2.1,20.7-7.8,29.1c-9.9,15-22.4,18.7-66.8,20l-24.4,0.6L565.9,505.9z"/>
	<path style="fill:#DF0000;" d="M229.2,632.4c-1.5-0.4-2.8-1.1-3.8-2.2c-1.6-1.7-1.5-2.5,0.8-11.7c4.2-16.8,13.1-56.3,21.2-94.2
		s12.7-58,14.8-62.2c0.5-1.5,1.9-2.5,3.4-2.5c2.9,0,1.9-3.7,16,60.6c10.9,50.2,24.2,109.1,25.1,111.8c0.3,0.9-7.5,1.2-37.4,1.1
		C248.3,632.9,230.3,632.6,229.2,632.4z"/>
	<path style="fill:#DF0000;" d="M904,524.3v-65.8h29.9c31.5,0,43.6,1.1,54.5,4.8c16.5,5.7,28,19.8,31.1,37.6
		c1.5,9.3,0.6,36.9-1.6,45.7c-3.9,15.8-12.9,27.8-25.6,33.9c-13.7,6.5-24.8,8.2-59.9,9l-28.4,0.6L904,524.3z"/>
</g>
<g id="layer102">
	<path style="fill:#DADBDB;" d="M342.8,1194.8c-4.4-4.6-7.7-7.6-7.3-6.8s-3.7-3-9.2-8.5s-10-10.2-9.9-10.5s-71.1-71.6-158.1-158.6
		L0,852V350.8l175.5-175.4L351,0h498.8l146.5,146.4c80.6,80.6,146.5,147,146.5,147.5c-0.1,0.5,0.3,1,0.9,1.1c0,0,0,0,0,0
		c0.5,0,13.3,12.4,28.6,27.8l27.7,27.7v502.5l-175.1,175L849.7,1203H351.1L342.8,1194.8z M1020.6,1023.7L1195,849.3V353.7
		l-174.4-174.4L846.3,5H353.7L179.4,179.4L5,353.7v495.6l174.4,174.3L353.7,1198h492.6L1020.6,1023.7z"/>
	<path style="fill:#DADBDB;" d="M600,1147.1l226.3-0.3l44.7-44.4l44.6-44.4l-44.6,45l-44.7,44.8l-226.3-0.2l-226.3-0.3L600,1147.1z"
		/>
	<path style="fill:#DADBDB;" d="M213.9,988L55.2,829.3L55.5,601l0.2-228.3L56,601l0.2,228.3L214.9,988
		c87.4,87.4,158.6,158.8,158.3,158.8S301.3,1075.4,213.9,988z"/>
	<path style="fill:#DADBDB;" d="M1054.8,919.5l92-92.3V375.8l-110.6-110.9L925.6,154l111.2,110.9l111.1,110.9v451.5l-92.5,92.3
		l-92.6,92.3L1054.8,919.5z"/>
	<path style="fill:#DADBDB;" d="M486.8,594.8l0.3-211l0.2,210.4l0.3,210.5l35.9,0.3l35.8,0.2l-36.3,0.3l-36.4,0.2L486.8,594.8z"/>
	<path style="fill:#DADBDB;" d="M146.4,804c27.7-0.3,36.8-0.6,37.5-1.6s0.7-0.8,0.4,0.3c-0.3,1.3-5.3,1.5-37.4,1.5h-37L146.4,804z"
		/>
	<path style="fill:#DADBDB;" d="M363.5,804c10.4-0.2,27.1-0.2,37.1,0s1.6,0.2-18.9,0.2S353.2,804.1,363.5,804z"/>
	<path style="fill:#DADBDB;" d="M606.3,804c3.7-0.2,9.6-0.2,13,0s0.4,0.3-6.8,0.3S602.6,804.2,606.3,804z"/>
	<path style="fill:#DADBDB;" d="M824.4,804c-1-0.9-0.9-417.7,0.1-417.7c0.4,0,0.6,93.9,0.4,208.7l-0.2,208.7H903l0.3-70.9l0.2-71
		v142.4l-39.2,0.3C842.7,804.6,824.8,804.4,824.4,804z"/>
	<path style="fill:#DADBDB;" d="M426,802.9c0.8-0.6,1.3-1.3,1.7-2.2c0.4-1,0.6-0.8,0.6,0.8s-0.5,2.2-1.6,2.2S425.3,803.4,426,802.9z
		"/>
	<path style="fill:#DADBDB;" d="M638.4,803c1.8-0.2,3.7-0.2,5.5,0c1.5,0.2,0.2,0.4-2.8,0.4S636.8,803.2,638.4,803z"/>
	<path style="fill:#DADBDB;" d="M426,796c-0.4-1-0.5-2.1-0.3-3.1c0.3-0.2,0.8,0.8,1.1,2.3c0.4,1,0.5,2.1,0.3,3.1
		C426.8,798.5,426.3,797.5,426,796z"/>
	<path style="fill:#DADBDB;" d="M698.4,789.2c1-0.9,6.9-3.6,6.9-3.2c0,0.6-5.5,3.6-6.6,3.6C698.3,789.6,698.2,789.4,698.4,789.2z"/>
	<path style="fill:#DADBDB;" d="M423,785c-0.4-1-0.5-2.1-0.3-3.1c0.3-0.2,0.8,0.8,1.1,2.3c0.4,1,0.5,2.1,0.3,3.1
		C423.8,787.5,423.3,786.5,423,785z"/>
	<path style="fill:#DADBDB;" d="M420,774c-0.4-1-0.5-2.1-0.3-3.1c0.3-0.2,0.8,0.8,1.1,2.3c0.4,1,0.5,2.1,0.3,3.1
		C420.8,776.5,420.3,775.5,420,774z"/>
	<path style="fill:#DADBDB;" d="M730.4,767c1.9-2,3.8-3.8,5.9-5.5c0.3,0-1.9,2.5-4.9,5.5c-1.9,2-3.8,3.8-5.9,5.5
		C725.2,772.6,727.4,770.1,730.4,767z"/>
	<path style="fill:#DADBDB;" d="M417,762.9c-0.4-1-0.5-2.1-0.3-3.1c0.3-0.2,0.8,0.8,1.1,2.3c0.4,1,0.5,2.1,0.3,3.1
		C417.8,765.4,417.3,764.4,417,762.9z"/>
	<path style="fill:#DADBDB;" d="M738.8,757.2c1.6-2,3-3.7,3.3-3.7c0.7,0-3.6,5.8-4.9,6.6C736.5,760.5,737.3,759.2,738.8,757.2z"/>
	<path style="fill:#DADBDB;" d="M414,751.9c-0.4-1-0.5-2.1-0.3-3.1c0.3-0.2,0.8,0.8,1.1,2.3c0.4,1,0.5,2.1,0.3,3.1
		C414.8,754.4,414.3,753.4,414,751.9z"/>
	<path style="fill:#DADBDB;" d="M411,740.9c-0.4-1-0.5-2.1-0.3-3.1c0.3-0.2,0.8,0.8,1.1,2.3c0.4,1,0.5,2.1,0.3,3.1
		C411.8,743.4,411.3,742.4,411,740.9z"/>
	<path style="fill:#DADBDB;" d="M565.4,735.2c-0.3-0.7-0.4-26.8-0.3-58l0.3-56.7l0.3,57.4l0.2,57.4l9.3,0.4l9.2,0.3l-9.3,0.2
		C568.5,736.3,565.7,736,565.4,735.2z"/>
	<path style="fill:#DADBDB;" d="M602.3,734.7c3.7-0.2,9.7-0.2,13.5,0s0.6,0.3-6.8,0.3S598.5,734.9,602.3,734.7z"/>
	<path style="fill:#DADBDB;" d="M629.9,733.7c1.5-0.2,3-0.2,4.5,0c1.2,0.2,0.2,0.4-2.3,0.4S628.6,733.9,629.9,733.7z"/>
	<path style="fill:#DADBDB;" d="M408,729.8c-0.4-1-0.5-2.1-0.3-3.1c0.3-0.2,0.8,0.8,1.1,2.3c0.4,1,0.5,2.1,0.3,3.1
		C408.8,732.3,408.3,731.3,408,729.8z"/>
	<path style="fill:#DADBDB;" d="M405,718.8c-0.4-1-0.5-2.1-0.3-3.1c0.3-0.2,0.8,0.8,1.1,2.3c0.4,1,0.5,2.1,0.3,3.1
		C405.8,721.3,405.3,720.3,405,718.8z"/>
	<path style="fill:#DADBDB;" d="M401.9,707.8c-0.4-1-0.5-2.1-0.3-3.1c0.3-0.2,0.8,0.8,1.1,2.3c0.4,1,0.5,2.1,0.3,3.1
		C402.7,710.3,402.2,709.3,401.9,707.8z"/>
	<path style="fill:#DADBDB;" d="M235.5,704.6c16.1-0.2,42.6-0.2,58.7,0s3,0.2-29.3,0.2S219.4,704.7,235.5,704.6z"/>
	<path style="fill:#DADBDB;" d="M760.8,698.8c0-2.2,0.2-3,0.4-1.7c0.2,1.3,0.2,2.7,0,4C760.9,702,760.7,701,760.8,698.8z"/>
	<path style="fill:#DADBDB;" d="M398.9,696.7c-0.4-1-0.5-2.1-0.3-3.1c0.3-0.2,0.8,0.8,1.1,2.3c0.4,1,0.4,2.1,0.3,3.1
		C399.7,699.2,399.2,698.2,398.9,696.7z"/>
	<path style="fill:#DADBDB;" d="M761.9,682.8c0-4.9,0.1-7.1,0.3-4.8c0.2,3,0.2,6,0,9C762,689.6,761.9,687.8,761.9,682.8z"/>
	<path style="fill:#DADBDB;" d="M395.9,685.7c-0.4-1-0.5-2.1-0.3-3.1c0.3-0.2,0.8,0.8,1.1,2.3c0.4,1,0.5,2.1,0.3,3.1
		C396.7,688.2,396.2,687.2,395.9,685.7z"/>
	<path style="fill:#DADBDB;" d="M392.9,674.6c-0.4-1-0.5-2.1-0.3-3.1c0.3-0.2,0.8,0.8,1.1,2.3c0.4,1,0.5,2.1,0.3,3.1
		C393.7,677.2,393.2,676.2,392.9,674.6z"/>
	<path style="fill:#DADBDB;" d="M139.6,672.2c0.1-1.2,0.4-2.4,0.9-3.5c0.5-1.3,0.9-1.4,0.9-0.5c-0.1,1.2-0.4,2.4-0.9,3.5
		C140,673,139.6,673.1,139.6,672.2z"/>
	<path style="fill:#DADBDB;" d="M760.8,667.7c0-2.2,0.2-3,0.4-1.7c0.2,1.3,0.2,2.7,0,4C760.9,670.9,760.7,669.9,760.8,667.7z"/>
	<path style="fill:#DADBDB;" d="M142.6,661.2c0.1-1.2,0.4-2.4,0.9-3.5c0.5-1.3,0.9-1.4,0.9-0.5c-0.1,1.2-0.4,2.4-0.9,3.5
		C143,662,142.6,662.1,142.6,661.2z"/>
	<path style="fill:#DADBDB;" d="M962.5,660.5c1.7-0.2,3.3-0.2,5,0c1.2,0.2,0,0.4-2.8,0.4S960.9,660.7,962.5,660.5z"/>
	<path style="fill:#DADBDB;" d="M975.5,659.5c1.2-0.2,2.3-0.2,3.5,0c0.9,0.3,0.1,0.5-1.8,0.5S974.5,659.8,975.5,659.5z"/>
	<path style="fill:#DADBDB;" d="M145.6,650.2c0.1-1.2,0.4-2.4,0.9-3.5c0.5-1.3,0.9-1.4,0.9-0.5c-0.1,1.2-0.4,2.4-0.9,3.5
		C146,651,145.6,651.1,145.6,650.2z"/>
	<path style="fill:#DADBDB;" d="M755.2,642.9c-0.9-2.9-1.5-5.4-1.3-5.6s1.2,2,2.1,4.8s1.5,5.3,1.3,5.5S756.1,645.8,755.2,642.9z"/>
	<path style="fill:#DADBDB;" d="M148.6,639.1c0.1-1.2,0.4-2.4,0.9-3.5c0.5-1.3,0.9-1.4,0.9-0.5c-0.1,1.2-0.4,2.4-0.9,3.5
		C149,639.9,148.6,640,148.6,639.1z"/>
	<path style="fill:#DADBDB;" d="M256,633.4c9.2-0.2,24.6-0.2,34.1,0s2,0.3-16.8,0.3S246.8,633.5,256,633.4z"/>
	<path style="fill:#DADBDB;" d="M749.7,629.6c-1.2-2.5-2-4.5-1.7-4.5c0.7,0,4.7,8.1,4.3,8.6C752,633.9,750.9,632,749.7,629.6z"/>
	<path style="fill:#DADBDB;" d="M151.6,628.1c0.1-1.2,0.4-2.4,0.9-3.5c0.5-1.3,0.9-1.4,0.9-0.5c-0.1,1.2-0.4,2.4-0.9,3.5
		C152,628.9,151.6,629,151.6,628.1z"/>
	<path style="fill:#DADBDB;" d="M1059.5,623.9c4.1-4.5,5-5.3,5-4.5c-1.5,1.7-3,3.3-4.7,4.7l-4.8,4.5L1059.5,623.9z"/>
	<path style="fill:#DADBDB;" d="M611.7,620.4c2.3-0.2,4.7-0.2,7,0c2.1,0.2,0.7,0.4-3.2,0.4S610,620.6,611.7,620.4z"/>
	<path style="fill:#DADBDB;" d="M741.5,616.8c-1.9-2.4-2.6-3.7-1.7-2.9c1.9,1.5,6.1,7.1,5.4,7.1
		C743.8,619.8,742.6,618.4,741.5,616.8z"/>
	<path style="fill:#DADBDB;" d="M154.6,617c0.1-1.2,0.4-2.4,0.9-3.5c0.5-1.3,0.9-1.4,0.9-0.5c-0.1,1.2-0.4,2.4-0.9,3.5
		C155,617.8,154.6,618,154.6,617z"/>
	<path style="fill:#DADBDB;" d="M157.6,606c0.1-1.2,0.4-2.4,0.9-3.5c0.5-1.3,0.9-1.4,0.9-0.5c-0.1,1.2-0.4,2.4-0.9,3.5
		C158,606.8,157.6,606.9,157.6,606z"/>
	<path style="fill:#DADBDB;" d="M160.6,595c0.1-1.2,0.4-2.4,0.9-3.5c0.5-1.3,0.9-1.4,0.9-0.5c-0.1,1.2-0.4,2.4-0.9,3.5
		C161,595.8,160.6,595.9,160.6,595z"/>
	<path style="fill:#DADBDB;" d="M1083.8,589.5c1.8-3.5,3.4-6.3,3.6-6.1c0.4,0.5-5.6,12.6-6.3,12.6
		C1080.8,596,1082.1,593.1,1083.8,589.5z"/>
	<path style="fill:#DADBDB;" d="M903.2,524l-0.2-66.5l29.9,0.2l29.8,0.3l-29.3,0.2l-29.4,0.3l-0.3,66l-0.2,65.9L903.2,524z"/>
	<path style="fill:#DADBDB;" d="M950,589.3c1.5-0.2,3-0.2,4.5,0c1.2,0.2,0.2,0.4-2.3,0.4S948.7,589.5,950,589.3z"/>
	<path style="fill:#DADBDB;" d="M163.6,583.9c0.1-1.2,0.4-2.4,0.9-3.5c0.5-1.3,0.9-1.4,0.9-0.5c-0.1,1.2-0.4,2.4-0.9,3.5
		C164,584.7,163.6,584.8,163.6,583.9z"/>
	<path style="fill:#DADBDB;" d="M167.7,568.9c0.1-1.2,0.4-2.4,0.9-3.5c0.5-1.3,0.9-1.4,0.9-0.5c-0.1,1.2-0.4,2.4-0.9,3.5
		C168.1,569.7,167.7,569.8,167.7,568.9z"/>
	<path style="fill:#DADBDB;" d="M715.9,558.9c9.4-10.3,10.3-11.1,6.8-6.5c-2.6,3.2-5.4,6.2-8.4,9C710,565.4,710.3,565,715.9,558.9z"
		/>
	<path style="fill:#DADBDB;" d="M170.7,557.8c0.1-1.2,0.4-2.4,0.9-3.5c0.5-1.3,0.9-1.4,0.9-0.5c-0.1,1.2-0.4,2.4-0.9,3.5
		C171.1,558.7,170.7,558.8,170.7,557.8z"/>
	<path style="fill:#DADBDB;" d="M565.4,555.7c-0.3-0.7-0.4-23.7-0.3-51l0.3-49.7h12l12-0.1l-11.7,0.3l-11.8,0.4v100.2l7.3,0.4
		l7.2,0.3l-7.3,0.2C568.1,556.8,565.7,556.5,565.4,555.7z"/>
	<path style="fill:#DADBDB;" d="M600.8,555.1c2-0.2,4-0.2,6,0c1.5,0.2,0,0.4-3.3,0.4S599,555.3,600.8,555.1z"/>
	<path style="fill:#DADBDB;" d="M173.7,546.8c0.1-1.2,0.4-2.4,0.9-3.5c0.5-1.3,0.9-1.4,0.9-0.5c-0.1,1.2-0.4,2.4-0.9,3.5
		C174.1,547.6,173.7,547.7,173.7,546.8z"/>
	<path style="fill:#DADBDB;" d="M1096.8,544.8c0-1.9,0.2-2.7,0.5-1.7c0.2,1.2,0.2,2.3,0,3.5C1097,547.5,1096.8,546.7,1096.8,544.8z"
		/>
	<path style="fill:#DADBDB;" d="M731.1,538.1c2.1-3.9,3.9-7,4.1-6.8c0.5,0.4-4.3,9.6-6.2,12C728.1,544.4,729.1,542.1,731.1,538.1z"
		/>
	<path style="fill:#DADBDB;" d="M176.7,535.8c0.1-1.2,0.4-2.4,0.9-3.5c0.5-1.3,0.9-1.4,0.9-0.5c-0.1,1.2-0.4,2.4-0.9,3.5
		C177.1,536.6,176.7,536.7,176.7,535.8z"/>
	<path style="fill:#DADBDB;" d="M1098,520.2c0-7.7,0.2-10.7,0.3-6.7s0.2,10.3,0,14S1098,528,1098,520.2z"/>
	<path style="fill:#DADBDB;" d="M1020.8,518.2c0-6.6,0.1-9.2,0.3-5.7c0.2,3.5,0.2,8.8,0,12S1020.8,524.8,1020.8,518.2z"/>
	<path style="fill:#DADBDB;" d="M179.7,524.7c0.1-1.2,0.4-2.4,0.9-3.5c0.5-1.3,0.9-1.4,0.9-0.5c-0.1,1.2-0.4,2.4-0.9,3.5
		C180.1,525.5,179.7,525.7,179.7,524.7z"/>
	<path style="fill:#DADBDB;" d="M182.7,513.7c0.1-1.2,0.4-2.4,0.9-3.5c0.5-1.3,0.9-1.4,0.9-0.5c-0.1,1.2-0.4,2.4-0.9,3.5
		C183.1,514.5,182.7,514.6,182.7,513.7z"/>
	<path style="fill:#DADBDB;" d="M665.5,501.7c0-4.7,0.2-6.6,0.4-4.2c0.2,2.8,0.2,5.7,0,8.5C665.7,508.3,665.5,506.4,665.5,501.7z"/>
	<path style="fill:#DADBDB;" d="M741.8,501.7c0-2.5,0.2-3.5,0.4-2.2c0.2,1.5,0.2,3,0,4.5C742,505.2,741.8,504.2,741.8,501.7z"/>
	<path style="fill:#DADBDB;" d="M185.7,502.7c0.1-1.2,0.4-2.4,0.9-3.5c0.5-1.3,0.9-1.4,0.9-0.5c-0.1,1.2-0.4,2.4-0.9,3.5
		C186.1,503.5,185.7,503.6,185.7,502.7z"/>
	<path style="fill:#DADBDB;" d="M1096.9,496.1c0-2.2,0.2-3,0.4-1.7c0.2,1.3,0.2,2.7,0,4C1097,499.4,1096.8,498.4,1096.9,496.1z"/>
	<path style="fill:#DADBDB;" d="M742.9,484.1c0-5.5,0.1-7.6,0.3-4.7c0.2,3.3,0.2,6.7,0,10C743,492,742.9,489.6,742.9,484.1z"/>
	<path style="fill:#DADBDB;" d="M189.2,489.6c0.4-1.9,0.9-3.7,1.5-5.5c0.6-1.4,0.7-0.9,0.3,1.5c-0.4,1.9-0.9,3.7-1.5,5.5
		C188.9,492.5,188.8,492,189.2,489.6z"/>
	<path style="fill:#DADBDB;" d="M1014.1,485.1c-0.9-1.9-1.5-3.5-1.2-3.5c0.7,0,3.7,6.1,3.3,6.6C1015.9,488.4,1015,487,1014.1,485.1z
		"/>
	<path style="fill:#DADBDB;" d="M192.2,478.6c0.4-1.9,0.9-3.7,1.5-5.5c0.6-1.4,0.7-0.9,0.3,1.5c-0.4,1.9-0.9,3.7-1.5,5.5
		C191.9,481.5,191.8,481,192.2,478.6z"/>
	<path style="fill:#DADBDB;" d="M741.8,467.5c0-2.5,0.2-3.5,0.4-2.2c0.2,1.5,0.2,3,0,4.5C742,471.1,741.8,470.1,741.8,467.5z"/>
	<path style="fill:#DADBDB;" d="M195.8,465.5c0.1-1.2,0.4-2.4,0.9-3.5c0.5-1.3,0.9-1.4,0.9-0.5c-0.1,1.2-0.4,2.4-0.9,3.5
		C196.1,466.4,195.8,466.5,195.8,465.5z"/>
	<path style="fill:#DADBDB;" d="M645.1,462.5c-1.9-1.1-3.1-1.9-2.7-2c1.1,0,6.7,2.9,6.7,3.5S649.1,464.7,645.1,462.5z"/>
	<path style="fill:#DADBDB;" d="M987.3,463c-1.9-0.7-2.8-1.4-2-1.4c1.6,0.2,3.1,0.7,4.5,1.4C993.7,464.7,991.9,464.8,987.3,463z"/>
	<path style="fill:#DADBDB;" d="M636.1,459.5c-2-0.6-2.1-0.8-0.5-0.8c1.4,0,2.7,0.3,4,0.8C642.1,460.6,639.5,460.6,636.1,459.5z"/>
	<path style="fill:#DADBDB;" d="M968,458.8c1.3-0.2,2.7-0.2,4,0c0.9,0.3-0.1,0.5-2.3,0.4S966.7,459,968,458.8z"/>
	<path style="fill:#DADBDB;" d="M620.9,456.8c1.5-0.2,3-0.2,4.5,0c1.2,0.2,0.2,0.4-2.3,0.4S619.6,457,620.9,456.8z"/>
	<path style="fill:#DADBDB;" d="M603.8,455.8c2.8-0.2,5.7-0.2,8.5,0c2.3,0.2,0.4,0.4-4.3,0.4S601.4,456,603.8,455.8z"/>
	<path style="fill:#DADBDB;" d="M198.8,454.5c0.1-1.2,0.4-2.4,0.9-3.5c0.5-1.3,0.9-1.4,0.9-0.5c-0.1,1.2-0.4,2.4-0.9,3.5
		C199.2,455.3,198.8,455.4,198.8,454.5z"/>
	<path style="fill:#DADBDB;" d="M201.8,443.5c0.1-1.2,0.4-2.4,0.9-3.5c0.5-1.3,0.9-1.4,0.9-0.5c-0.1,1.2-0.4,2.4-0.9,3.5
		C202.2,444.3,201.8,444.4,201.8,443.5z"/>
	<path style="fill:#DADBDB;" d="M1077.2,437.8c-2-3.2-2.7-4.6-1.4-3.1c2.6,3,6.2,8.8,5.5,8.8
		C1079.8,441.7,1078.4,439.8,1077.2,437.8z"/>
	<path style="fill:#DADBDB;" d="M204.8,432.4c0.1-1.2,0.4-2.4,0.9-3.5c0.5-1.3,0.9-1.4,0.9-0.5c-0.1,1.2-0.4,2.4-0.9,3.5
		C205.2,433.2,204.8,433.3,204.8,432.4z"/>
	<path style="fill:#DADBDB;" d="M724.4,426.2c-1.9-2.4-2.6-3.7-1.7-2.9c1.9,1.5,6.1,7.1,5.4,7.1
		C726.7,429.2,725.5,427.7,724.4,426.2z"/>
	<path style="fill:#DADBDB;" d="M1064,421.2l-4-4.3l4.3,4c3.9,3.6,4.7,4.5,3.9,4.5C1066.7,424.1,1065.3,422.7,1064,421.2z"/>
	<path style="fill:#DADBDB;" d="M207.8,421.4c0.1-1.2,0.4-2.4,0.9-3.5c0.5-1.3,0.9-1.4,0.9-0.5c-0.1,1.2-0.4,2.4-0.9,3.5
		C208.2,422.2,207.8,422.3,207.8,421.4z"/>
	<path style="fill:#DADBDB;" d="M716.4,416.9c-2.4-2.5-4.2-4.5-3.9-4.5s2.5,2,4.9,4.5s4.2,4.5,3.9,4.5S718.8,419.4,716.4,416.9z"/>
	<path style="fill:#DADBDB;" d="M1055,413.8c-3-2.7-3.2-3.1-0.9-1.6c2.8,1.9,6.2,5.3,5.3,5.2C1059.2,417.3,1057.2,415.7,1055,413.8z
		"/>
	<path style="fill:#DADBDB;" d="M978.5,387.6c1.7-0.2,3.3-0.2,5,0c1.2,0.2,0,0.4-2.8,0.4S977,387.8,978.5,387.6z"/>
	<path style="fill:#DADBDB;" d="M631.4,386.6c1.2-0.2,2.3-0.2,3.5,0c0.9,0.3,0.1,0.5-1.8,0.5S630.4,386.9,631.4,386.6z"/>
	<path style="fill:#DADBDB;" d="M918.8,386.6c8.3-0.2,22.2-0.2,30.6,0s1.5,0.3-15.3,0.3S910.4,386.7,918.8,386.6z"/>
	<path style="fill:#DADBDB;" d="M616.3,385.6c1.8-0.2,3.7-0.2,5.5,0c1.5,0.2,0.2,0.4-2.8,0.4S614.7,385.8,616.3,385.6z"/>
	<path style="fill:#DADBDB;" d="M587.8,384.6c3.5-0.2,7-0.2,10.5,0c2.8,0.2,0.5,0.3-5.3,0.3S584.8,384.8,587.8,384.6z"/>
	<path style="fill:#DADBDB;" d="M215.7,213.2c86.4-86.4,157.2-157,157.5-157s-70.1,70.6-156.5,157s-157.2,157-157.5,157
		S129.3,299.6,215.7,213.2z"/>
	<path style="fill:#DADBDB;" d="M857.8,87.8l-31.6-31.6L600,55.9l-226.3-0.2L600,55.4l226.3-0.2l32.1,32.1
		c17.6,17.7,31.9,32.1,31.6,32.1S875.2,105.2,857.8,87.8z"/>
</g>
<g id="layer103">
	<path style="fill:#E0E1E1;" d="M179.4,1023.6L5,849.3V353.7l174.4-174.3L353.7,5h492.6l174.6,174.9l174.6,174.8l-174.6-174.4
		L846.3,6H354.7L180.4,180.3L6,354.7v493.6l174.4,174.4L354.7,1197h491.6l174.6-174.3l174.6-174.4l-174.6,174.9L846.3,1198H353.7
		L179.4,1023.6z"/>
	<path style="fill:#E0E1E1;" d="M866.9,1185.6c0-0.1,3.5-3.6,7.8-7.7l7.7-7.5l-7.5,7.8C868,1185.3,866.9,1186.4,866.9,1185.6z"/>
	<path style="fill:#E0E1E1;" d="M894.5,1079.6c37.5-37.5,68.4-68.2,68.7-68.2s-30.2,30.7-67.7,68.2s-68.4,68.2-68.7,68.2
		S857,1117.1,894.5,1079.6z"/>
	<path style="fill:#E0E1E1;" d="M965.2,1087.1c1.9-2,3.8-3.8,5.9-5.5c0.3,0-1.9,2.5-4.9,5.5c-1.9,2-3.8,3.8-5.9,5.5
		C960,1092.6,962.2,1090.1,965.2,1087.1z"/>
	<path style="fill:#E0E1E1;" d="M983.3,1069.1c1.9-1.9,3.6-3.5,3.9-3.5s-1,1.6-2.9,3.5s-3.6,3.5-3.9,3.5S981.4,1071,983.3,1069.1z"
		/>
	<path style="fill:#E0E1E1;" d="M1023.9,1028.4c13.2-13.2,24.3-24.1,24.6-24.1s-10.3,10.8-23.6,24.1s-24.3,24.1-24.6,24.1
		S1010.7,1041.7,1023.9,1028.4z"/>
	<path style="fill:#E0E1E1;" d="M1063.5,989.1c1.4-1.7,3-3.3,4.7-4.8c0.8,0,0,0.9-4.4,5l-4.8,4.5L1063.5,989.1z"/>
	<path style="fill:#E0E1E1;" d="M1082.6,970c4.1-4.5,5-5.3,5-4.5c-1.5,1.7-3,3.3-4.7,4.7l-4.8,4.5L1082.6,970z"/>
	<path style="fill:#E0E1E1;" d="M1149.8,902.8c4.1-4.5,5-5.3,5-4.5c-1.5,1.7-3,3.3-4.7,4.7l-4.8,4.5L1149.8,902.8z"/>
	<path style="fill:#E0E1E1;" d="M77.8,852.6l-23.1-23.4l23.4,23.1c21.7,21.5,23.8,23.6,23,23.6C100.9,875.9,90.4,865.4,77.8,852.6z"
		/>
	<path style="fill:#E0E1E1;" d="M1194,858.5c1-1.2,2.1-2.3,3.3-3.3l3.2-2.9l-2.9,3.3C1194.8,858.7,1194,859.3,1194,858.5z"/>
	<path style="fill:#E0E1E1;" d="M587.8,804c2.8-0.2,5.7-0.2,8.5,0c2.3,0.2,0.4,0.4-4.3,0.4S585.3,804.2,587.8,804z"/>
	<path style="fill:#E0E1E1;" d="M585.8,735.7c1.3-0.2,2.7-0.2,4,0c0.9,0.3-0.1,0.5-2.3,0.4S584.4,735.9,585.8,735.7z"/>
	<path style="fill:#E0E1E1;" d="M917.8,660.5c7.8-0.2,20.7-0.2,28.6,0s1.4,0.3-14.3,0.3S909.9,660.6,917.8,660.5z"/>
	<path style="fill:#E0E1E1;" d="M584.2,556.2c3-0.2,6-0.2,9,0c2.3,0.2,0.2,0.3-4.8,0.3S581.6,556.3,584.2,556.2z"/>
	<path style="fill:#E0E1E1;" d="M610.8,555.1c1.5-0.2,3-0.2,4.5,0c1.2,0.2,0.2,0.4-2.3,0.4S609.5,555.3,610.8,555.1z"/>
	<path style="fill:#E0E1E1;" d="M591.8,454.8c1.5-0.2,3-0.2,4.5,0c1.2,0.2,0.2,0.4-2.3,0.4S590.5,455,591.8,454.8z"/>
	<path style="fill:#E0E1E1;" d="M1063.5,421.9c-2.4-2.5-4.2-4.5-3.9-4.5s2.5,2,4.9,4.5s4.2,4.5,3.9,4.5S1065.9,424.4,1063.5,421.9z"
		/>
	<path style="fill:#E0E1E1;" d="M242.6,386.6c13.3-0.2,35.2-0.2,48.7,0s2.4,0.2-24.4,0.2S229.2,386.7,242.6,386.6z"/>
	<path style="fill:#E0E1E1;" d="M845.1,386.6c10.8-0.2,28.7-0.2,39.6,0s1.9,0.2-19.9,0.2S834.2,386.7,845.1,386.6z"/>
	<path style="fill:#E0E1E1;" d="M574.7,384.6c2-0.2,4-0.2,6,0c1.5,0.2,0,0.4-3.3,0.4S572.9,384.8,574.7,384.6z"/>
	<path style="fill:#E0E1E1;" d="M89.8,338.1c19.3-19.3,35.3-35.1,35.6-35.1s-15.3,15.9-34.6,35.1s-35.3,35.1-35.6,35.1
		S70.5,357.5,89.8,338.1z"/>
	<path style="fill:#E0E1E1;" d="M1174.9,325.6c-10.7-10.7-19.4-19.6-19.1-19.6s9.3,8.8,20.1,19.6s19.4,19.6,19.1,19.6
		S1185.6,336.3,1174.9,325.6z"/>
	<path style="fill:#E0E1E1;" d="M1145.4,296.4c-1.5-1.4-2.6-2.7-2.4-2.9s1.7,0.9,3.3,2.5C1149.8,299.6,1149.3,299.9,1145.4,296.4z"
		/>
	<path style="fill:#E0E1E1;" d="M1135.2,285.8l-2.9-3.3l3.3,2.9c3,2.8,3.7,3.6,2.9,3.6C1137.3,288,1136.2,286.9,1135.2,285.8z"/>
	<path style="fill:#E0E1E1;" d="M1114.1,264.7l-2.9-3.3l3.3,2.9c3,2.8,3.7,3.6,2.9,3.6C1116.2,266.9,1115.1,265.8,1114.1,264.7z"/>
	<path style="fill:#E0E1E1;" d="M1037.4,188.1c-4.1-4.1-7.2-7.5-6.9-7.5s3.8,3.4,7.9,7.5s7.2,7.5,6.9,7.5S1041.6,192.2,1037.4,188.1
		z"/>
	<path style="fill:#E0E1E1;" d="M1008.8,159.5c-8.2-8.2-14.8-15.1-14.5-15.1s7.3,6.8,15.5,15.1s14.8,15,14.6,15
		S1017.1,167.9,1008.8,159.5z"/>
	<path style="fill:#E0E1E1;" d="M874.9,103.6l-48.7-49l49,48.7c26.9,26.8,48.9,48.8,48.9,48.9C924.1,152.9,920.2,149.1,874.9,103.6z
		"/>
	<path style="fill:#E0E1E1;" d="M975.7,126.2l-4-4.3l4.3,4c1.5,1.3,2.9,2.7,4.2,4.2C980.3,130.9,979.3,130.1,975.7,126.2z"/>
	<path style="fill:#E0E1E1;" d="M897,47.5l-6.5-6.8l6.8,6.5c6.2,6,7.2,7,6.4,7C903.6,54.2,900.5,51.2,897,47.5z"/>
	<path style="fill:#E0E1E1;" d="M856.8,7.5C854.4,5,852.6,3,852.9,3s2.5,2,4.9,4.5s4.2,4.5,3.9,4.5S859.3,10,856.8,7.5z"/>
</g>
<g id="layer104">
	<path style="fill:#FFFFFF;" d="M475.4,1203.3c68.5-0.2,180.7-0.2,249.3,0s12.4,0.2-124.7,0.2S406.8,1203.4,475.4,1203.3z"/>
	<path style="fill:#FFFFFF;" d="M342.6,1195.8l-7-7.3l7.3,7c3.9,3.8,7.2,7.1,7.2,7.2C350.2,1203.5,349.1,1202.5,342.6,1195.8z"/>
	<path style="fill:#FFFFFF;" d="M180.3,1022.6L6,848.3V354.7l174.4-174.4L354.7,6h491.6l174.3,174.3L1195,354.7v493.6l-174.4,174.4
		L846.3,1197H354.7L180.3,1022.6z M987.5,987.6l160.3-160.3V375.8L987.6,215.5L827.3,55.2H600.5l-226.8,0.1L214.4,214.1L55.2,372.9
		v456.8l159.3,159l159.2,158.9l226.8,0.1h226.8L987.5,987.6z"/>
	<path style="fill:#FFFFFF;" d="M487.6,594.5V384l59,0.6c75.5,0.9,99.1,2.4,123.4,8.2c30,7.2,51.6,24,64.5,50.2
		c5.8,11.8,7.2,19.8,7.2,41.1c0.1,28-3.6,43.2-14.2,59.7c-9.5,14.8-24.7,28-35.5,31c-5.6,1.6-8.8,4.3-8.8,7.5s1.9,4.5,8.1,5.6
		c7.5,1.2,12.5,3.1,25.2,9.7c21.8,11.3,33.7,26.6,40.5,51.9c6.3,23.6,5.4,52.6-2.3,76.3c-10.8,33.4-35.9,57.4-72.5,69.1
		c-23.8,7.7-33.3,8.4-124.6,9.3l-70,0.6L487.6,594.5z M608,735.5c14.7-0.5,29.1-1.4,32.1-2c8-1.7,22.8-9.2,29.2-15
		c10.7-9.6,15-22.1,15-43.1c-0.1-19.7-3.2-28.5-13.5-38.4c-3.6-3.3-7.7-6.1-12.1-8.3c-14-6.9-26.2-8.5-65.9-8.5h-27.9v116.4h8.3
		C577.7,736.3,593.4,735.9,608,735.5L608,735.5z M624.2,554.4c16.5-2.4,25.5-7,32.5-16.5s10.1-23.8,9.2-40.6
		c-1.5-25.9-13-37.1-41.7-40.6c-4.6-0.5-19.9-1.3-33.8-1.6l-25.5-0.7v102.9l24.9-0.7C603.4,556.2,618.9,555.1,624.2,554.4
		L624.2,554.4z"/>
	<path style="fill:#FFFFFF;" d="M105.8,803.1c-0.7-0.3,0.5-6,3.3-16.3c5.1-18.5,102.1-374.1,106.3-389.2l2.7-10.3h96.9l1.5,5.3
		c0.8,2.8,8.1,29.8,16.1,59.9c20.1,74.8,43.3,160.8,71.3,263.3c12.9,47.4,23.3,86.4,22.9,86.8s-18.7,0.6-40.8,0.6h-40.3l-10.3-45.7
		c-5.7-25.1-10.8-47.4-11.3-49.5l-1-3.7l-58.3,0.2l-58.4,0.3l-0.8,3c-0.8,3-15.6,66.9-19.9,86.1l-2.2,9.7l-38.2-0.1
		C124.1,803.6,106.3,803.3,105.8,803.1z M307,633c0-0.6-2.5-11.7-5.5-24.8c-7.3-31.8-11.7-52-22.6-102.2c-4.9-23.3-9.5-43.5-10-45
		c-0.8-2.1-1.6-2.6-3.8-2.3c-2.4,0.3-3,1.1-5,7.3c-1.2,3.9-5,19.7-8.3,35.1c-11.4,53.2-21.1,96.3-24.6,110.1
		c-1.9,7.5-3.4,14.8-3.4,16.2c0,3.3,2.3,5,7.9,5.8C240,634.4,307,634.2,307,633z"/>
	<path style="fill:#FFFFFF;" d="M824.7,595.4V387.2l81.1,0.4c68.9,0.3,82.4,0.6,90.5,2c29,5,51.8,16.3,68.9,34.1
		c12.3,12.9,20.4,26.8,26.2,44.9c4.8,15.3,5.7,22.9,5.7,52.2c0,29.5-1,36.7-6.7,53c-13.6,38.4-40.5,65.3-78.5,78
		c-19.5,6.5-29.7,7.7-71.3,8.4l-37.1,0.6l-0.3,71.5l-0.2,71.4h-78.3V595.4z M962.7,588.9c37.8-4.6,53.5-19.2,57.8-53.5
		c1.5-12.4,0.7-33.2-1.6-40.7c-6.6-21.6-21.6-32.8-48.2-36c-4.9-0.6-22.3-1.1-38.3-1.1H903V590h25.4
		C942.2,590,957.8,589.5,962.7,588.9L962.7,588.9z"/>
	<path style="fill:#FFFFFF;" d="M224.8,1077.9l-90.8-91.1l91.1,90.8c50.1,50,91,90.9,91,91c0,0.1-0.1,0.3-0.2,0.3c0,0,0,0-0.1,0
		C315.6,1168.9,274.7,1127.9,224.8,1077.9z"/>
	<path style="fill:#FFFFFF;" d="M25.1,878.4C14.4,867.7,5.7,858.8,6,858.8s9.3,8.8,20.1,19.6S45.5,898,45.2,898
		S35.8,889.2,25.1,878.4z"/>
	<path style="fill:#FFFFFF;" d="M24.1,325.6C34.3,315.4,42.8,307,43.1,307s-7.8,8.3-18.1,18.6S6.3,344.1,6,344.1
		S13.9,335.8,24.1,325.6z"/>
	<path style="fill:#FFFFFF;" d="M325.6,24.1C336.6,13,345.9,4,346.1,4s-8.5,9-19.6,20.1S306.3,44.2,306,44.2S314.5,35.1,325.6,24.1z
		"/>
</g>
</svg>
