<svg id="Layer_1" data-name="Layer 1" xmlns="http://www.w3.org/2000/svg" viewBox="0 0 599.98 600"><defs><style>.cls-adblock-adblock-adblock-1{fill:#f40d12;}.cls-adblock-adblock-adblock-2{fill:#fff;}</style></defs><title>adblock</title><g id="logo_full_core" data-name="logo/full/core"><g id="core-logo-full"><g id="icon"><path id="octagon" class="cls-adblock-adblock-adblock-1" d="M262.55,13.18,113.19,162.56A45,45,0,0,0,100,194.37V405.64a45,45,0,0,0,13.18,31.82L262.55,586.82A45,45,0,0,0,294.37,600H505.63a45,45,0,0,0,31.82-13.18L686.81,437.46A45,45,0,0,0,700,405.64V194.37a45,45,0,0,0-13.18-31.82L537.45,13.18A45,45,0,0,0,505.63,0H294.37A45,45,0,0,0,262.55,13.18Z" transform="translate(-100.01)"/><path id="Hand" class="cls-adblock-adblock-adblock-2" d="M392.85,517.49c99.4,0,123-91.17,123-91.17l57-163.91s5.15-17,4.21-17.2c-53.13-9.93-64.42,27.51-64.42,27.51s-20.42,53-23.58,53-3.54-3.92-3.54-3.92V131.29s1-24.58-24.25-24.58-24,24.62-24,24.62l0,140.75s.33,5.67-4.4,5.67c-4.21,0-4-5.48-4-5.48V102.69S430.57,75,405,75s-24.15,27.89-24.15,27.89l-.24,167.32s.33,5.15-3.88,5.15c-3.92,0-3.78-5.1-3.78-5.1V130s1.42-28.55-24.58-28.55c-25.52,0-24.15,29.07-24.15,29.07L324,278.61s.47,4.3-3.54,4.3c-4.25,0-4.16-4.3-4.16-4.3L316.14,189s.24-24.77-21.22-24.77c-22.83,0-22.4,24.77-22.4,24.77V382.36C272.66,382.31,266.75,517.49,392.85,517.49Z" transform="translate(-100.01)"/></g></g></g></svg>