<?xml version="1.0" encoding="utf-8"?>
<!-- Generator: Adobe Illustrator 21.0.0, SVG Export Plug-In . SVG Version: 6.00 Build 0)  -->
<svg version="1.1" id="Layer_1" xmlns="http://www.w3.org/2000/svg" xmlns:xlink="http://www.w3.org/1999/xlink" x="0px" y="0px"
	 viewBox="0 0 992.3 992.1" style="enable-background:new 0 0 992.3 992.1;" xml:space="preserve">
<g id="layer101">
	<path style="fill:#68B775;" d="M483.8,986c-5.5-3.3-16.9-10.4-25.4-15.7s-16.6-10.3-18-11.1c-1.4-0.8-3-1.9-3.6-2.3
		c-0.5-0.4-4.4-3-8.5-5.7c-4.1-2.7-8.4-5.6-9.5-6.4c-3.4-2.5-35.6-25-37.3-26.1c-0.9-0.5-2.1-1.5-2.7-2.1c-0.5-0.6-4.8-3.9-9.5-7.4
		c-4.7-3.5-11.7-8.9-15.6-11.9c-3.9-3.1-8.6-6.7-10.4-8.1c-1.8-1.4-3.8-3-4.4-3.5c-0.6-0.6-6.5-5.5-13-11
		c-6.6-5.5-16.6-14.2-22.2-19.2c-5.7-5.1-10.5-9.3-10.7-9.3c-0.2,0-3.5-3-7.3-6.8c-3.8-3.7-10.5-10.1-14.9-14.3
		c-12.1-11.6-40.3-41.1-51.6-54.3c-1.9-2.1-4.1-4.6-4.9-5.5c-0.8-0.9-4.6-5.5-8.4-10.1c-3.8-4.7-7.8-9.4-8.8-10.5
		c-1.5-1.6-16-20.4-25.9-33.5c-24.5-32.6-53.4-79.7-74.1-120.5c-4.4-8.8-8.4-16.2-8.7-16.5c-0.3-0.3-0.7-1.2-0.9-2
		c-0.2-0.8-3.2-7.8-6.7-15.6c-3.5-7.7-7.3-16.4-8.5-19.4c-1.1-2.9-2.6-6.2-3.2-7.4c-0.7-1.2-1.3-2.5-1.4-3.1
		c-0.1-0.5-2.9-8-6.2-16.5c-7.2-18.7-16.4-46.1-22.3-66.5c-2.4-8.2-4.7-15.2-5.1-15.3c-0.5-0.2-0.6-0.7-0.4-1.1
		c0.3-0.4-1.5-8.6-3.9-18.2C22.6,380.4,14,335.9,11.7,316c-0.4-3.2-1-5.8-1.3-5.8c-0.3,0-0.7-2.1-0.7-4.8
		c-0.1-2.6-1.1-12.8-2.3-22.7c-1.2-9.9-2.6-25.2-3.3-34c-0.6-8.8-1.4-16.2-1.7-16.5s-0.7-4.5-0.7-9.5c-0.1-4.9-0.5-31.6-0.9-59.2
		L0,113.2l13.9-6.6c97.4-46.4,201-77.2,316.9-94.3c85.1-12.6,174-15.6,257-8.6c140.3,11.9,273,46.8,390.8,102.8l13.7,6.6v35.3
		c0,47.4-1.7,82.2-6.1,124.8C955.4,574.5,798.1,811.4,516.3,981c-10.2,6.2-19.5,11.2-20.5,11.1C494.7,992.1,489.3,989.3,483.8,986z"
		/>
</g>
<g id="layer102">
	<path style="fill:#FFFFFF;" d="M420.1,555c-39.2-45.3-85.8-99.1-103.7-119.7L284,397.9l2.4-1.9c3.9-3.3,15.5-9.7,23.1-13
		c33-14,63-10,84.5,11.1c2.8,2.7,25.4,29.1,50.3,58.6l45.4,53.6l6.2-6.3c3.4-3.5,57.1-58.5,119.5-122.3
		c62.3-63.8,115.6-117.8,118.3-119.9c8.9-6.8,15-9.1,24.1-9.1c6.7,0,8.9,0.5,13.6,2.8c3.2,1.5,6.2,3.4,6.8,4.1
		c0.9,1.1-28.4,40.6-142.1,191.4c-78.8,104.6-143.6,190.1-144,190.1C491.7,637.2,459.3,600.2,420.1,555z"/>
</g>
</svg>
