<!DOCTYPE svg PUBLIC "-//W3C//DTD SVG 20010904//EN" "http://www.w3.org/TR/2001/REC-SVG-20010904/DTD/svg10.dtd">
<svg version="1.0" xmlns="http://www.w3.org/2000/svg" width="992px" height="992px" viewBox="0 0 9920 9920" preserveAspectRatio="xMidYMid meet">
<g id="layer101" fill="#68b775" stroke="none">
 <path d="M4835 9858 c-55 -33 -169 -104 -254 -157 -85 -53 -166 -103 -180 -111 -14 -8 -30 -19 -36 -23 -5 -4 -44 -30 -85 -57 -41 -27 -84 -56 -95 -64 -34 -25 -356 -250 -373 -261 -9 -5 -21 -15 -27 -21 -5 -6 -48 -39 -95 -74 -47 -35 -117 -89 -156 -119 -39 -31 -86 -67 -104 -81 -18 -14 -38 -30 -44 -35 -6 -6 -65 -55 -130 -110 -66 -55 -166 -142 -222 -192 -57 -51 -105 -93 -107 -93 -2 0 -35 -30 -73 -68 -38 -37 -105 -101 -149 -143 -121 -116 -403 -411 -516 -543 -19 -21 -41 -46 -49 -55 -8 -9 -46 -55 -84 -101 -38 -47 -78 -94 -88 -105 -15 -16 -160 -204 -259 -335 -245 -326 -534 -797 -741 -1205 -44 -88 -84 -162 -87 -165 -3 -3 -7 -12 -9 -20 -2 -8 -32 -78 -67 -156 -35 -77 -73 -164 -85 -194 -11 -29 -26 -62 -32 -74 -7 -12 -13 -25 -14 -31 -1 -5 -29 -80 -62 -165 -72 -187 -164 -461 -223 -665 -24 -82 -47 -152 -51 -153 -5 -2 -6 -7 -4 -11 3 -4 -15 -86 -39 -182 -72 -287 -158 -732 -181 -931 -4 -32 -10 -58 -13 -58 -3 0 -7 -21 -7 -48 -1 -26 -11 -128 -23 -227 -12 -99 -26 -252 -33 -340 -6 -88 -14 -162 -17 -165 -3 -3 -7 -45 -7 -95 -1 -49 -5 -316 -9 -592 l-8 -503 139 -66 c974 -464 2010 -772 3169 -943 851 -126 1740 -156 2570 -86 1403 119 2730 468 3908 1028 l137 66 0 353 c0 474 -17 822 -61 1248 -308 3013 -1881 5382 -4699 7078 -102 62 -195 112 -205 111 -11 0 -65 -28 -120 -61z"/>
 </g>
<g id="layer102" fill="#ffffff" stroke="none">
 <path d="M4198 5548 c-392 -453 -858 -991 -1037 -1197 l-324 -374 24 -19 c39 -33 155 -97 231 -130 330 -140 630 -100 845 111 28 27 254 291 503 586 l454 536 62 -63 c34 -35 571 -585 1195 -1223 623 -638 1156 -1178 1183 -1199 89 -68 150 -91 241 -91 67 0 89 5 136 28 32 15 62 34 68 41 9 11 -284 406 -1421 1914 -788 1046 -1436 1901 -1440 1901 -4 1 -328 -369 -720 -821z"/>
 </g>

</svg>