<?xml version="1.0" encoding="utf-8"?>
<!-- Generator: Adobe Illustrator 21.0.0, SVG Export Plug-In . SVG Version: 6.00 Build 0)  -->
<svg version="1.1" id="Layer_1" xmlns="http://www.w3.org/2000/svg" xmlns:xlink="http://www.w3.org/1999/xlink" x="0px" y="0px"
	 viewBox="0 0 512 512.1" style="enable-background:new 0 0 512 512.1;" xml:space="preserve">
<path style="fill:#E16B5A;" d="M255.3,0c0,0,150.9-6.8,230.9,144.6c-42.3,0-243.8,0-243.8,0s-46-1.5-85.3,54.2
	c-11.3,23.4-23.4,47.5-9.8,94.9c-19.6-33.1-104.1-180-104.1-180S102.9,6.1,255.3,0z"/>
<path style="fill:#CC6152;" d="M255.3,0c-2.6,0.1-5.1,0.3-7.7,0.5c40.8,3,150.9,22.5,215.1,144.2c9.9,0,18,0,23.4,0
	C406.3-6.7,255.3,0,255.3,0z"/>
<path style="fill:#FFD464;" d="M478.4,384.5c0,0-69.6,133.9-241,127.3c21.2-36.6,122-210.8,122-210.8s24.3-39-4.4-100.8
	c-14.6-21.5-58.8-44-106.8-56c38.6-0.4,237.6,0,237.6,0S549.4,249.7,478.4,384.5z"/>
<path style="fill:#F2C95F;" d="M485.8,144.3c0,0-101.5-0.2-173.6-0.2c69.2,0,152,0.2,152,0.2s63.6,105.4-7.4,240.2
	c0,0-63.8,122.4-219.3,127.3l0,0c171.4,6.6,241-127.3,241-127.3C549.4,249.7,485.8,144.3,485.8,144.3z"/>
<path style="fill:#74B340;" d="M33.3,385.5c0,0-81.3-127.1,10.1-272C64.5,150,165.2,324.3,165.2,324.3s21.7,40.6,89.7,46.6
	c25.9-1.9,52.9-3.5,87.3-39C323.2,365.5,238,512,238,512S114.8,514.3,33.3,385.5z"/>
<circle style="fill:#FFFFFF;" cx="254.7" cy="258.1" r="116"/>
<circle style="fill:#2995CC;" cx="254.7" cy="258.1" r="92"/>
<path style="fill:#268CBF;" d="M254.7,166.1c-1.8,0-3.6,0.1-5.4,0.2c48.3,2.8,86.6,42.8,86.6,91.8s-38.3,89-86.6,91.8
	c1.8,0.1,3.6,0.2,5.4,0.2c50.8,0,92-41.2,92-92C346.7,207.3,305.5,166.1,254.7,166.1z"/>
</svg>
