<?xml version="1.0" encoding="utf-8"?>
<!-- Generator: Adobe Illustrator 21.0.0, SVG Export Plug-In . SVG Version: 6.00 Build 0)  -->
<svg version="1.1" id="Capa_1" xmlns="http://www.w3.org/2000/svg" xmlns:xlink="http://www.w3.org/1999/xlink" x="0px" y="0px"
	 viewBox="0 0 490.8 511.9" style="enable-background:new 0 0 490.8 511.9;" xml:space="preserve">
<path style="fill:#2196F3;" d="M484.8,200.5c-2-9.6-4.6-19-7.8-28.2C445.1,70.9,351.7,1.4,245.4,0C119.9,3.3,15.7,97.9,0.1,222.5
	c-0.8,5.8,3.2,11.2,9,12.1c4.1,0.6,8.3-1.3,10.5-4.8c53.3-78,142-124.2,236.5-123.1c67.7,0,101.3,42.4,106.1,85.3H158.8
	c4.1-12.5,9.8-24.5,16.9-35.6c3.2-4.9,1.8-11.5-3.1-14.8c-3.3-2.2-7.6-2.3-11-0.4c-25.3,13.9-47.8,32.4-66.2,54.7
	C72.1,228.9,61,269,64.2,309.3c0,92.2,69.6,171,173.2,196c21.3,4.8,43.1,7,64.9,6.6h2.1c10.9,0.1,21.8-0.5,32.6-1.6
	c37.2-3,73.3-13.9,106-31.9c3.2-1.9,5.2-5.4,5.2-9.2v-81.9c0-5.9-4.8-10.7-10.7-10.7c-2,0-3.9,0.5-5.5,1.5
	c-23.9,13.8-50.5,22.4-78,25.2c-14.8,1.5-29.6,2.1-44.5,1.8c-89,0-134.4-34.9-138.4-106.7h309c5.9,0,10.7-4.8,10.7-10.7v-32
	C490.7,237.4,488.7,218.8,484.8,200.5z"/>
</svg>
