<?xml version="1.0" encoding="utf-8"?>
<!-- Generator: Adobe Illustrator 21.0.0, SVG Export Plug-In . SVG Version: 6.00 Build 0)  -->
<svg version="1.1" id="Layer_1" xmlns="http://www.w3.org/2000/svg" xmlns:xlink="http://www.w3.org/1999/xlink" x="0px" y="0px"
	 viewBox="0 0 484.4 512" style="enable-background:new 0 0 484.4 512;" xml:space="preserve">
<path style="fill:#2995CC;" d="M470.9,114.5C518.2-8.5,426.2,0.1,426.2,0.1c-59,0-132.8,53.8-132.8,53.8s-88-23.7-176.1,29.5
	c-95.9,61.1-92.8,169.7-92.8,169.7c78-111.7,186.6-157.1,186.6-157.1v7.4C50.9,213,13,373.3,3.5,406C-6,438.7,0.3,512,67.8,512
	c67.5,0,136-54.3,136-54.3s14.8,3.2,54.8,3.2c168.7,0,208.7-148.6,208.7-148.6H317.6c0,0-10.5,48.5-64.3,48.5
	c-73.8,0-69.6-77-69.6-77h285.7C483.1,85.5,310.3,57.1,310.3,57.1s61.1-43.2,113.9-43.2c83.6,0,44.1,97.9,44.1,97.9L470.9,114.5z
	 M195.4,455.5c0,0-103,62.5-149.2,19.2C21.5,431.4,61.7,370,61.7,370S95.8,433.2,195.4,455.5z M319.3,216.3H183.4
	c0,0-1.7-66.2,69.7-66.2C322,150,319.3,216.3,319.3,216.3z"/>
</svg>
