<?xml version="1.0" encoding="utf-8"?>
<!-- Generator: Adobe Illustrator 21.0.0, SVG Export Plug-In . SVG Version: 6.00 Build 0)  -->
<svg version="1.1" id="Layer_1" xmlns="http://www.w3.org/2000/svg" xmlns:xlink="http://www.w3.org/1999/xlink" x="0px" y="0px"
	 viewBox="0 0 441.9 506.5" style="enable-background:new 0 0 441.9 506.5;" xml:space="preserve">
<g id="layer101">
	<path style="fill:#38B5E6;" d="M133.1,503.9c-6.5-3.2-13.2-10.6-20.2-22.3c-8.3-13.9-11-17.2-16.4-20c-10.3-5.3-24.9-3.9-54.9,5.3
		c-27.3,8.3-35.5,9.1-39.8,3.8c-1.9-2.4-2.1-3.6-1.6-11.7c0.5-9.7,4-20.7,14.6-46.3c8.6-20.7,15.4-45.1,19.7-70.7
		c1.5-8.6,1.8-21.8,2.4-95.5c0.6-82,0.7-85.9,2.8-96.5c3.7-18.9,8.6-33.4,17-50c25.5-50.7,70.6-85.1,128.2-97.7
		c9.3-2,13.3-2.2,35.5-2.3c26.8,0,32.5,0.7,51.2,6.1c43,12.4,79.2,39.3,103.8,76.9c10.2,15.6,19.4,36.7,23.8,54.5
		c5,20.2,4.9,18.5,5.7,109c0.6,73.4,0.9,86.9,2.4,95.5c4.3,25.6,11,49.7,19.7,70.5c10.6,25.6,14.1,36.7,14.6,46.5
		c0.5,8.1,0.3,9.3-1.6,11.7c-4.3,5.3-12.5,4.5-39.8-3.8c-30-9.2-44.6-10.6-54.9-5.3c-5.4,2.8-8.1,6.1-16.4,20
		c-7,11.7-13.7,19.1-20.2,22.3c-4.3,2.2-6.6,2.6-13.2,2.6c-9-0.1-11.9-0.9-34.7-10.3c-21.7-8.8-32.4-12.1-39.9-12.1
		s-18.2,3.3-39.9,12.1c-22.8,9.4-25.7,10.2-34.7,10.3C139.7,506.5,137.4,506.1,133.1,503.9z"/>
</g>
<g id="layer102">
	<path style="fill:#FEFFFF;" d="M210.1,324.5c-34.7-6.3-65.5-38.5-78.2-81.8l-1.9-6.2l10.1,10.5c33.6,35.2,80.2,45.5,123.5,27.2
		c13.1-5.5,24.6-13.7,37-26.2l11.1-11.3l-1.5,5.2c-12.1,40.7-40.9,73.2-72.2,81.1C230.1,325,217.1,325.7,210.1,324.5z"/>
	<path style="fill:#FEFFFF;" d="M157.9,211.6c-11.5-3.5-22-17-26.7-34.2c-1.4-4.8-1.8-10.2-1.8-21.9c0-13.4,0.3-16.5,2.3-23
		c4.9-15.5,12.7-26.1,22.9-30.7c17.3-8,35.6,6.3,43,33.7c2.7,10,2.5,32-0.5,42.3C190.1,202.2,173.7,216.4,157.9,211.6z"/>
	<path style="fill:#FEFFFF;" d="M269.1,210.9c-7-2.6-14.6-10.4-19.2-19.8c-6.2-12.6-7.5-18.8-7.5-35.6c0-12.4,0.4-15.6,2.4-22
		c6.6-21.3,18.8-34,32.6-34c14,0,27.5,14.3,33.2,35.1c2.5,9,2.5,33.7-0.1,42.9c-3.9,14.3-11.9,26.2-21.2,31.6
		C283.7,212.4,275.2,213.1,269.1,210.9z"/>
</g>
</svg>
