<!DOCTYPE svg PUBLIC "-//W3C//DTD SVG 20010904//EN" "http://www.w3.org/TR/2001/REC-SVG-20010904/DTD/svg10.dtd">
<svg version="1.0" xmlns="http://www.w3.org/2000/svg" width="512px" height="512px" viewBox="0 0 5120 5120" preserveAspectRatio="xMidYMid meet">
<g id="layer101" fill="#38b5e6" stroke="none">
 <path d="M1682 5074 c-65 -32 -132 -106 -202 -223 -83 -139 -110 -172 -164 -200 -103 -53 -249 -39 -549 53 -273 83 -355 91 -398 38 -19 -24 -21 -36 -16 -117 5 -97 40 -207 146 -463 86 -207 154 -451 197 -707 15 -86 18 -218 24 -955 6 -820 7 -859 28 -965 37 -189 86 -334 170 -500 255 -507 706 -851 1282 -977 93 -20 133 -22 355 -23 268 0 325 7 512 61 430 124 792 393 1038 769 102 156 194 367 238 545 50 202 49 185 57 1090 6 734 9 869 24 955 43 256 110 497 197 705 106 256 141 367 146 465 5 81 3 93 -16 117 -43 53 -125 45 -398 -38 -300 -92 -446 -106 -549 -53 -54 28 -81 61 -164 200 -70 117 -137 191 -202 223 -43 22 -66 26 -132 26 -90 -1 -119 -9 -347 -103 -217 -88 -324 -121 -399 -121 -75 0 -182 33 -399 121 -228 94 -257 102 -347 103 -66 0 -89 -4 -132 -26z"/>
 </g>
<g id="layer102" fill="#feffff" stroke="none">
 <path d="M2452 3280 c-347 -63 -655 -385 -782 -818 l-19 -62 101 105 c336 352 802 455 1235 272 131 -55 246 -137 370 -262 l111 -113 -15 52 c-121 407 -409 732 -722 811 -79 20 -209 27 -279 15z"/>
 <path d="M1930 2151 c-115 -35 -220 -170 -267 -342 -14 -48 -18 -102 -18 -219 0 -134 3 -165 23 -230 49 -155 127 -261 229 -307 173 -80 356 63 430 337 27 100 25 320 -5 423 -70 244 -234 386 -392 338z"/>
 <path d="M3042 2144 c-70 -26 -146 -104 -192 -198 -62 -126 -75 -188 -75 -356 0 -124 4 -156 24 -220 66 -213 188 -340 326 -340 140 0 275 143 332 351 25 90 25 337 -1 429 -39 143 -119 262 -212 316 -56 33 -141 40 -202 18z"/>
 </g>

</svg>