<?xml version="1.0" encoding="utf-8"?>
<!-- Generator: Adobe Illustrator 21.0.0, SVG Export Plug-In . SVG Version: 6.00 Build 0)  -->
<svg version="1.1" id="Layer_1" xmlns="http://www.w3.org/2000/svg" xmlns:xlink="http://www.w3.org/1999/xlink" x="0px" y="0px"
	 viewBox="0 0 110 125.7" style="enable-background:new 0 0 110 125.7;" xml:space="preserve">
<title>nano2</title>
<polyline style="fill:#FFB7C2;" points="55,4.2 107,33.4 107,92.4 55,121.9 3,92.7 3,32.7 "/>
<path d="M26.7,15.6L0,31.1v63.5l27.2,15.7c14.9,8.6,27.7,15.6,28.3,15.4s13.2-7.2,27.8-15.7L110,94.5V31.2L82.9,15.5
	C68,6.9,55.3-0.1,54.7,0S41.5,7.1,26.7,15.6z M80.3,20.9L104,34.4l-0.3,28.5l-0.2,28.5L80,105.1c-12.9,7.5-24.2,13.6-25,13.6
	s-12.1-6.1-25-13.6L6.5,91.4L6.3,62.9L6.1,34.4l23.7-13.7c13-7.5,24.4-13.6,25.3-13.5S67.3,13.5,80.3,20.9z"/>
<path d="M37.8,38.8c-0.5,0.7-1.3,11.2-1.7,23.4c-0.6,19.9-0.5,22.2,1,23.7c1.9,2,4.8,2.2,6.3,0.4c0.5-0.6,1.2-5.9,1.4-11.7
	c0.3-8.8,0.8-11.3,3-15.5c4.7-9.1,11.1-13.6,14.6-10.2c1.2,1.2,1.5,3.5,1.4,9.9c-0.2,9.8,1.6,26.8,3.1,28.5c1.5,2,5.5,1.5,6.7-0.7
	c0.8-1.5,0.8-4.2,0-9.6c-0.5-4.1-1-11.2-1-15.7c-0.1-9.7-1.1-15.1-3.8-18.6c-4.2-5.7-11.9-5.3-18.7,1l-4.3,3.9l-0.6-4.4
	c-0.7-4.2-1.9-5.6-5.1-5.6C39.2,37.7,38.4,38.1,37.8,38.8z"/>
</svg>
