<svg id="Layer_1" data-name="Layer 1" xmlns="http://www.w3.org/2000/svg" viewBox="0 0 110 125.71"><defs><style>.cls-1{fill:#ffb7c2;}</style></defs><title>nano2</title><polyline class="cls-1" points="55 4.15 107 33.4 107 92.4 55 121.9 3 92.65 3 32.65"/><path d="M26.7,15.7,0,31.2V94.7l27.2,15.7C42.1,119,54.9,126,55.5,125.8s13.2-7.2,27.8-15.7L110,94.6V31.3L82.9,15.6C68,7,55.3,0,54.7.1S41.5,7.2,26.7,15.7ZM80.3,21,104,34.5,103.7,63l-.2,28.5L80,105.2c-12.9,7.5-24.2,13.6-25,13.6s-12.1-6.1-25-13.6L6.5,91.5,6.3,63,6.1,34.5,29.8,20.8c13-7.5,24.4-13.6,25.3-13.5S67.3,13.6,80.3,21Z" transform="translate(0 -0.1)"/><path d="M37.82,38.85c-.5.7-1.3,11.2-1.7,23.4-.6,19.9-.5,22.2,1,23.7,1.9,2,4.8,2.2,6.3.4.5-.6,1.2-5.9,1.4-11.7.3-8.8.8-11.3,3-15.5,4.7-9.1,11.1-13.6,14.6-10.2,1.2,1.2,1.5,3.5,1.4,9.9-.2,9.8,1.6,26.8,3.1,28.5,1.5,2,5.5,1.5,6.7-.7.8-1.5.8-4.2,0-9.6-.5-4.1-1-11.2-1-15.7-.1-9.7-1.1-15.1-3.8-18.6-4.2-5.7-11.9-5.3-18.7,1l-4.3,3.9-.6-4.4c-.7-4.2-1.9-5.6-5.1-5.6A4,4,0,0,0,37.82,38.85Z" transform="translate(0 -0.1)"/></svg>