<?xml version="1.0" encoding="utf-8"?>
<!-- Generator: Adobe Illustrator 21.0.0, SVG Export Plug-In . SVG Version: 6.00 Build 0)  -->
<svg version="1.1" id="Layer_1" xmlns="http://www.w3.org/2000/svg" xmlns:xlink="http://www.w3.org/1999/xlink" x="0px" y="0px"
	 viewBox="0 0 512 512" style="enable-background:new 0 0 512 512;" xml:space="preserve">
<circle style="fill:#91D2F2;" cx="256" cy="256" r="256"/>
<path style="fill:#F5F5F5;" d="M233.2,312.9c-73,0-143.3,21.9-203.3,63.3C73,457,158.1,477.9,256,477.9
	c87.9,0,165.4-10.2,211.5-77.7C402.4,343.9,319.3,312.9,233.2,312.9z"/>
<path style="fill:#2995CC;" d="M233.2,324.3c-73.5,0-141.6,22.9-197.7,61.9C80.1,461.5,162.1,512,256,512
	c83.8,0,158.2-40.3,204.9-102.5C399.9,356.5,320.4,324.3,233.2,324.3z"/>
<path style="fill:#F5F5F5;" d="M214.8,352.9h-5.6c-8.1,0-15.3-2.2-21.5-6.6c-6.3-4.4-9.4-12.8-9.4-25.3V182.8l134,150.5
	c11.3,2.6,22.3,5.8,33.1,9.5V182.8c0-10.3,1-17.5,2.9-21.7s4.6-7.3,8.1-9.1c3.5-1.9,10.2-3.4,20.3-4.6v-5.9h-78.7v5.9
	c13.2-0.2,22.7,2.8,28.3,9c4.1,4.6,6.1,13.4,6.1,26.4v93.5L214.8,141.4h-84.5v5.9c7.3,0.2,12.8,1.2,16.7,3
	c3.9,1.8,8.3,5.6,13.4,11.4l5.1,5.8V321c0,11.5-2.6,19.7-7.7,24.5c-5.2,4.8-14.3,7.3-27.4,7.4v5.9h84.5L214.8,352.9L214.8,352.9z"/>
</svg>
