<?xml version="1.0" encoding="utf-8"?>
<!-- Generator: Adobe Illustrator 21.0.0, SVG Export Plug-In . SVG Version: 6.00 Build 0)  -->
<svg version="1.1" id="Layer_1" xmlns="http://www.w3.org/2000/svg" xmlns:xlink="http://www.w3.org/1999/xlink" x="0px" y="0px"
	 viewBox="0 0 484 512" style="enable-background:new 0 0 484 512;" xml:space="preserve">
<path style="fill:#E16B5A;" d="M484,253.8C484,415.1,384.1,512,237.2,512C99.8,512,0,414.4,0,259.7C0,113.2,101.1,0,244,0
	C386.2,0,484,103.5,484,253.8z M239.2,79.4c-67.9,0-104.4,67.7-104.4,166c0,71.8,23.7,187.2,113.8,187.2
	c72.4,0,100.6-75.3,100.6-170.7C349.2,161.2,307.7,79.4,239.2,79.4z"/>
<g>
	<path style="fill:#BF5B4D;" d="M230.9,79.8c-2.5-0.2-5.1-0.4-7.7-0.4c-67.9,0-104.4,67.7-104.4,166c0,71.8,23.7,187.2,113.8,187.2
		c2.7,0,5.2-0.1,7.8-0.3c-83.3-6.8-105.6-117.3-105.6-186.9C134.8,151.2,168.3,85.1,230.9,79.8z"/>
	<path style="fill:#BF5B4D;" d="M244,0c-2.6,0-5.1,0.1-7.7,0.2C374,4.2,468,106.5,468,253.8c0,158.2-96.1,254.4-238.5,258
		c2.6,0.1,5.1,0.2,7.7,0.2c147,0,246.8-96.9,246.8-258.2C484,103.5,386.2,0,244,0z"/>
</g>
</svg>
