<?xml version="1.0" encoding="utf-8"?>
<!-- Generator: Adobe Illustrator 21.0.0, SVG Export Plug-In . SVG Version: 6.00 Build 0)  -->
<svg version="1.1" id="Layer_1" xmlns="http://www.w3.org/2000/svg" xmlns:xlink="http://www.w3.org/1999/xlink" x="0px" y="0px"
	 viewBox="0 0 512 512" style="enable-background:new 0 0 512 512;" xml:space="preserve">
<circle style="fill:#F5F5F5;" cx="256" cy="256" r="256"/>
<path style="fill:#E6E6E6;" d="M256,0c-1.3,0-2.7,0.1-4,0.1C391.5,2.2,504,116,504,256S391.5,509.8,252,511.9c1.3,0,2.7,0.1,4,0.1
	c141.4,0,256-114.6,256-256S397.4,0,256,0z"/>
<path style="fill:#88C5CC;" d="M256,489.2C127.4,489.2,22.8,384.6,22.8,256C22.8,127.4,127.4,22.8,256,22.8S489.3,127.4,489.3,256
	C489.3,384.6,384.6,489.2,256,489.2z"/>
<path style="fill:#80B9BF;" d="M45.5,256c0-124.8,98.5-227,221.9-233c-3.8-0.2-7.6-0.3-11.4-0.3C127.4,22.8,22.8,127.4,22.8,256
	c0,128.6,104.6,233.2,233.3,233.2c3.8,0,7.6-0.1,11.4-0.3C144,483,45.5,380.8,45.5,256z"/>
<g>
	<path style="fill:#F5F5F5;" d="M256,170.7c-47.1,0-85.3,38.3-85.3,85.3c0,47.1,38.3,85.3,85.3,85.3s85.3-38.3,85.3-85.3
		C341.3,208.9,303.1,170.7,256,170.7z M256,318.6c-34.5,0-62.6-28.1-62.6-62.6s28.1-62.6,62.6-62.6s62.6,28.1,62.6,62.6
		S290.5,318.6,256,318.6z"/>
	<polygon style="fill:#F5F5F5;" points="256,108.1 238.9,176.4 256,176.4 273.1,176.4 	"/>
	<polygon style="fill:#F5F5F5;" points="256,403.9 238.9,335.6 256,335.6 273.1,335.6 	"/>
	<polygon style="fill:#F5F5F5;" points="108.1,256 176.4,273.1 176.4,256 176.4,238.9 	"/>
	<polygon style="fill:#F5F5F5;" points="403.9,256 335.6,273.1 335.6,256 335.6,238.9 	"/>
</g>
<polygon style="fill:#E16B5A;" points="396.8,115.2 235.9,235.9 256,256 276.1,276.1 "/>
<polygon style="fill:#E6E6E6;" points="115.2,396.8 235.9,235.9 256,256 276.1,276.1 "/>
</svg>
